<svg width="142" height="142" viewBox="0 0 142 142" fill="none" xmlns="http://www.w3.org/2000/svg">
<path fill-rule="evenodd" clip-rule="evenodd" d="M68.6371 33.7324C66.6847 31.5406 63.3212 31.3432 61.1247 33.2915L23.0858 67.0315C21.9498 68.0391 21.2998 69.4835 21.2998 71.0002C21.2998 72.5168 21.9498 73.9609 23.0858 74.9691L61.1247 108.709C63.3212 110.657 66.6847 110.46 68.6371 108.268C70.5896 106.076 70.3918 102.72 68.1952 100.772L40.6171 76.3103H115.378C118.317 76.3103 120.7 73.9325 120.7 71.0002C120.7 68.0676 118.317 65.6903 115.378 65.6903H40.6171L68.1952 41.2288C70.3918 39.2805 70.5896 35.9243 68.6371 33.7324Z" fill="black"/>
</svg>
