<svg width="202" height="221" viewBox="0 0 202 221" fill="none" xmlns="http://www.w3.org/2000/svg">
<path d="M80.6129 90.8003C76.4552 90.8003 73.0869 94.2084 73.0869 98.4096V147.789C73.0869 151.99 76.4552 155.398 80.6129 155.398C84.7707 155.398 88.139 151.99 88.139 147.789V98.4096C88.139 94.2084 84.7707 90.8003 80.6129 90.8003Z" fill="black"/>
<path d="M119.672 90.8003C115.514 90.8003 112.146 94.2084 112.146 98.4096V147.789C112.146 151.99 115.514 155.398 119.672 155.398C123.829 155.398 127.198 151.99 127.198 147.789V98.4096C127.198 94.2084 123.829 90.8003 119.672 90.8003Z" fill="black"/>
<g filter="url(#filter0_d_726_928)">
<path fill-rule="evenodd" clip-rule="evenodd" d="M146.566 32.3228C146.812 34.7192 146.909 37.4509 146.946 40.5036C147.801 40.5975 148.637 40.7009 149.452 40.8146C158.764 42.1142 166.591 44.9036 172.601 51.4366C178.611 57.9695 180.797 66.0653 181.407 75.5507C181.995 84.6948 181.166 96.2843 180.137 110.672L177.231 151.284C176.331 163.869 175.602 174.057 173.983 182.053C172.298 190.377 169.467 197.353 163.656 202.819C157.846 208.285 150.761 210.637 142.429 211.737C134.424 212.792 124.323 212.792 111.845 212.792H91.6633C79.517 212.792 69.6755 212.792 61.8551 211.774C53.7106 210.713 46.769 208.445 41.0087 203.18C35.2486 197.916 32.3178 191.161 30.4536 183.074C28.6634 175.308 27.6718 165.408 26.448 153.187L22.3807 112.578C20.9044 97.8405 19.7165 85.9813 20.0638 76.6142C20.4237 66.9057 22.4521 58.5864 28.4902 51.8307C34.5286 45.0749 42.5098 42.1956 52.0262 40.855C52.6107 40.7728 53.2057 40.6957 53.8115 40.6235C53.848 37.5224 53.9433 34.7506 54.1922 32.3228C54.6184 28.1656 55.5589 24.1654 58.0111 20.5454C59.6958 18.0585 61.8217 15.9088 64.281 14.2051C67.8611 11.7252 71.8175 10.774 75.929 10.3429C79.8226 9.93472 84.6208 9.93488 90.2411 9.93507H110.527C116.148 9.93488 120.936 9.93472 124.83 10.3429C128.941 10.774 132.898 11.7252 136.477 14.2051C138.937 15.9088 141.063 18.0585 142.747 20.5454C145.2 24.1654 146.14 28.1656 146.566 32.3228ZM131.595 33.892C131.759 35.4922 131.839 37.3629 131.879 39.667C126.676 39.5619 120.963 39.562 114.718 39.5621H87.6437C80.7671 39.562 74.521 39.5619 68.8789 39.6957C68.9185 37.3784 68.9994 35.4989 69.1642 33.892C69.4643 30.9644 69.9766 29.8139 70.4298 29.1449C71.0636 28.2092 71.8634 27.4005 72.7885 26.7596C73.4497 26.3017 74.5868 25.7837 77.4815 25.4802C80.5062 25.1631 84.5075 25.1536 90.6132 25.1536H110.146C116.251 25.1536 120.253 25.1631 123.277 25.4802C126.171 25.7837 127.309 26.3017 127.97 26.7596C128.895 27.4005 129.695 28.2092 130.328 29.1449C130.782 29.8139 131.294 30.9644 131.595 33.892ZM54.1032 55.9279C62.1243 54.798 72.8593 54.7806 88.2253 54.7806H114.145C129.117 54.7806 139.566 54.7977 147.393 55.8901C155.005 56.9524 158.898 58.8866 161.58 61.8013C164.261 64.7161 165.889 68.7833 166.386 76.5378C166.9 84.5118 166.162 95.0515 165.083 110.153L162.257 149.655C161.309 162.898 160.636 172.09 159.237 179.001C157.88 185.698 156.028 189.208 153.403 191.677C150.779 194.146 147.183 195.762 140.481 196.646C133.564 197.559 124.448 197.574 111.319 197.574H92.1818C79.3943 197.574 70.5251 197.559 63.7783 196.68C57.2446 195.829 53.7095 194.274 51.1026 191.891C48.4955 189.508 46.6085 186.108 45.1127 179.619C43.5682 172.92 42.6599 163.998 41.3714 151.133L37.4149 111.63C35.8665 96.1706 34.8019 85.3683 35.1053 77.1843C35.4007 69.2186 36.9715 65.04 39.6579 62.0343C42.3442 59.0288 46.2965 57.0276 54.1032 55.9279Z" fill="black"/>
</g>
<defs>
<filter id="filter0_d_726_928" x="16.0029" y="9.93506" width="169.6" height="210.857" filterUnits="userSpaceOnUse" color-interpolation-filters="sRGB">
<feFlood flood-opacity="0" result="BackgroundImageFix"/>
<feColorMatrix in="SourceAlpha" type="matrix" values="0 0 0 0 0 0 0 0 0 0 0 0 0 0 0 0 0 0 127 0" result="hardAlpha"/>
<feOffset dy="4"/>
<feGaussianBlur stdDeviation="2"/>
<feComposite in2="hardAlpha" operator="out"/>
<feColorMatrix type="matrix" values="0 0 0 0 0 0 0 0 0 0 0 0 0 0 0 0 0 0 0.25 0"/>
<feBlend mode="normal" in2="BackgroundImageFix" result="effect1_dropShadow_726_928"/>
<feBlend mode="normal" in="SourceGraphic" in2="effect1_dropShadow_726_928" result="shape"/>
</filter>
</defs>
</svg>
