<svg width="111" height="111" viewBox="0 0 111 111" fill="none" xmlns="http://www.w3.org/2000/svg">
<path d="M55.4998 5.54981H39.9429C33.0135 5.54971 27.3888 5.54962 22.956 6.1456C18.3377 6.76653 14.39 8.10275 11.2465 11.2462C8.10298 14.3897 6.76676 18.3374 6.14588 22.9557C5.54987 27.3886 5.54998 33.0132 5.55009 39.9427L5.54992 56.1425C5.54857 60.2534 5.54761 63.1344 6.21276 65.6169C8.01113 72.3285 13.2535 77.571 19.9652 79.3692C22.4476 80.0347 25.329 80.0336 29.4398 80.0325L30.0824 80.0319C32.4009 80.0319 34.2806 78.1527 34.2806 75.8339C34.2806 73.5151 32.4009 71.6359 30.0824 71.6359C25.0825 71.6359 23.4088 71.5998 22.1383 71.259C18.3241 70.2373 15.345 67.258 14.323 63.4441C13.9825 62.1737 13.9464 60.4998 13.9464 55.4998V40.2492C13.9464 32.9411 13.9553 27.8827 14.4673 24.0745C14.9631 20.3873 15.8601 18.5068 17.1836 17.1833C18.5071 15.8598 20.3876 14.9628 24.0748 14.467C27.8829 13.9551 32.9413 13.9461 40.2495 13.9461H55.4998C61.6043 13.9461 66.5526 18.8945 66.5526 24.9986C66.5526 27.3172 68.4319 29.1967 70.7507 29.1967C73.0695 29.1967 74.9487 27.3172 74.9487 24.9986C74.9487 14.2573 66.2413 5.54981 55.4998 5.54981Z" fill="black"/>
<path fill-rule="evenodd" clip-rule="evenodd" d="M71.0597 30.9697H70.4464C63.5172 30.9697 57.8923 30.9696 53.4596 31.5655C48.8413 32.1865 44.8936 33.5227 41.7501 36.6662C38.6066 39.8097 37.2704 43.7573 36.6495 48.3757C36.0535 52.8085 36.0536 58.433 36.0537 65.3627V71.0593C36.0536 77.9884 36.0535 83.6134 36.6495 88.0462C37.2704 92.6643 38.6066 96.612 41.7501 99.7555C44.8936 102.899 48.8413 104.235 53.4596 104.856C57.8923 105.452 63.5172 105.452 70.447 105.452H71.0591C77.9888 105.452 83.6138 105.452 88.0466 104.856C92.6647 104.235 96.6124 102.899 99.7559 99.7555C102.899 96.612 104.236 92.6643 104.857 88.0462C105.452 83.6134 105.452 77.9884 105.452 71.0587V65.3627C105.452 58.433 105.452 52.8085 104.857 48.3757C104.236 43.7573 102.899 39.8097 99.7559 36.6662C96.6124 33.5227 92.6647 32.1865 88.0466 31.5655C83.6138 30.9696 77.9888 30.9697 71.0597 30.9697ZM54.5784 39.887C58.3868 39.375 63.4451 39.366 70.7533 39.366C78.061 39.366 83.1198 39.375 86.9277 39.887C90.6151 40.3827 92.4954 41.2797 93.8191 42.6032C95.1422 43.9268 96.0397 45.8073 96.5353 49.4945C97.047 53.3026 97.0564 58.3609 97.0564 65.6691V70.7529C97.0564 78.0606 97.047 83.1194 96.5353 86.9273C96.0397 90.6147 95.1422 92.495 93.8191 93.8187C92.4954 95.1418 90.6151 96.0393 86.9277 96.5349C83.1198 97.0466 78.061 97.0555 70.7533 97.0555C63.4451 97.0555 58.3868 97.0466 54.5784 96.5349C50.8912 96.0393 49.0107 95.1418 47.6872 93.8187C46.3637 92.495 45.4667 90.6147 44.971 86.9273C44.459 83.1194 44.45 78.0606 44.45 70.7529V65.6691C44.45 58.3609 44.459 53.3026 44.971 49.4945C45.4667 45.8073 46.3637 43.9268 47.6872 42.6032C49.0107 41.2797 50.8912 40.3827 54.5784 39.887Z" fill="black"/>
</svg>
