<svg width="191" height="191" viewBox="0 0 191 191" fill="none" xmlns="http://www.w3.org/2000/svg">
<path fill-rule="evenodd" clip-rule="evenodd" d="M91.174 17.3555H92.6151C96.6171 17.3555 99.8622 20.5967 99.8622 24.5949C99.8622 28.5932 96.6171 31.8344 92.6151 31.8344H91.6827C74.4435 31.8344 62.1971 31.848 52.852 33.0276C43.6898 34.1841 38.3369 36.3586 34.3581 39.9611C33.5965 40.6507 32.8692 41.3772 32.1789 42.138C28.5727 46.1127 26.3959 51.4599 25.2383 60.6127C24.0574 69.948 24.0438 82.1816 24.0438 99.4033C24.0438 116.624 24.0574 128.857 25.2383 138.194C26.3959 147.345 28.5727 152.693 32.1789 156.668C32.8692 157.428 33.5965 158.155 34.3581 158.844C38.3369 162.447 43.6898 164.621 52.852 165.778C62.197 166.958 74.4435 166.971 91.6827 166.971C108.922 166.971 121.168 166.958 130.513 165.778C139.675 164.621 145.028 162.447 149.007 158.844C149.769 158.155 150.496 157.428 151.187 156.668C154.793 152.693 156.969 147.345 158.127 138.194C159.308 128.857 159.321 116.624 159.321 99.4033C159.321 95.4047 162.566 92.1634 166.568 92.1634C170.57 92.1634 173.816 95.4047 173.816 99.4033V99.9104C173.816 116.51 173.816 129.66 172.507 140.008C171.162 150.645 168.332 159.331 161.926 166.391C160.917 167.503 159.854 168.565 158.741 169.573C151.673 175.972 142.978 178.799 132.33 180.143C121.97 181.45 108.808 181.45 92.191 181.45H91.1743C74.5575 181.45 61.3945 181.45 51.0351 180.143C40.3873 178.799 31.6927 175.972 24.6245 169.573C23.5114 168.565 22.4484 167.503 21.4396 166.391C15.0334 159.331 12.2039 150.645 10.8585 140.008C9.54957 129.66 9.54967 116.51 9.54981 99.9114V98.8943C9.54967 82.2954 9.54957 69.1461 10.8585 58.7976C12.2039 48.161 15.0334 39.4753 21.4396 32.4145C22.4484 31.3026 23.5114 30.2407 24.6245 29.2329C31.6927 22.8333 40.3874 20.0068 51.0351 18.6629C61.3944 17.3553 74.5573 17.3554 91.174 17.3555Z" fill="black"/>
<path fill-rule="evenodd" clip-rule="evenodd" d="M167.4 23.1048C167.479 23.1846 167.559 23.2648 167.64 23.3451C167.72 23.4255 167.801 23.5056 167.881 23.5854C171.158 26.8584 173.983 29.6811 176.066 32.2166C178.272 34.9029 180.15 37.8485 180.948 41.5006C181.617 44.5551 181.617 47.7177 180.948 50.7723C180.15 54.4244 178.272 57.37 176.066 60.0563C173.983 62.5918 171.158 65.4144 167.881 68.6874L129.86 106.669C129.582 106.946 129.307 107.221 129.034 107.494C124.266 112.267 120.492 116.044 115.579 118.077C110.666 120.11 105.316 120.104 98.5555 120.099C98.1697 120.098 97.7791 120.098 97.3847 120.098H96.9521C92.7613 120.098 88.9213 120.099 85.7986 119.679C82.3624 119.219 78.7274 118.135 75.7394 115.15C72.7514 112.166 71.6661 108.534 71.2048 105.101C70.7857 101.981 70.7861 98.1461 70.7866 93.9596V93.5275C70.7866 93.1328 70.7862 92.743 70.7859 92.3578C70.7795 85.6038 70.7743 80.2597 72.8093 75.3518C74.8444 70.444 78.6257 66.6738 83.4035 61.9101C83.6758 61.6387 83.9512 61.364 84.2298 61.0857L122.009 23.3451C122.091 23.2648 122.171 23.1846 122.25 23.1048C125.527 19.8315 128.353 17.0086 130.891 14.928C133.579 12.7238 136.528 10.8483 140.184 10.0503C143.242 9.38296 146.408 9.38296 149.466 10.0503C153.121 10.8483 156.07 12.7238 158.759 14.928C161.297 17.0086 164.123 19.8315 167.4 23.1048ZM149.565 26.121C147.734 24.6204 146.866 24.3036 146.371 24.1956C145.352 23.9732 144.297 23.9732 143.278 24.1956C142.784 24.3036 141.915 24.6204 140.085 26.121C138.165 27.6946 135.844 30.0019 132.258 33.5832L94.4786 71.3239C88.4748 77.3214 86.9913 78.9847 86.2001 80.8927C85.4091 82.8003 85.2807 85.0301 85.2807 93.5275C85.2807 98.2903 85.296 101.136 85.57 103.175C85.6956 104.11 85.8437 104.578 85.9306 104.79C85.9508 104.839 85.9664 104.871 85.9763 104.889L85.9886 104.911L86.0105 104.924C86.0292 104.933 86.0614 104.95 86.1104 104.97C86.322 105.057 86.7911 105.205 87.7269 105.33C89.7682 105.604 92.6163 105.619 97.3847 105.619C105.891 105.619 108.123 105.49 110.033 104.7C111.943 103.91 113.607 102.427 119.611 96.43L157.391 58.6896C160.976 55.1082 163.285 52.7893 164.861 50.8716C166.363 49.0429 166.68 48.176 166.788 47.6817C167.011 46.6635 167.011 45.6094 166.788 44.5911C166.68 44.0968 166.363 43.23 164.861 41.4013C163.285 39.4835 160.976 37.1647 157.391 33.5832C153.806 30.0018 151.485 27.6946 149.565 26.121Z" fill="black"/>
</svg>
