<svg width="200" height="200" viewBox="0 0 200 200" fill="none" xmlns="http://www.w3.org/2000/svg">
<path fill-rule="evenodd" clip-rule="evenodd" d="M100.005 62.1289C88.1488 62.1289 78.4009 66.1673 71.6715 73.4614C65.0431 80.646 62.0703 90.1961 62.0703 99.9975C62.0703 109.799 65.0431 119.35 71.6715 126.534C78.4009 133.828 88.1488 137.867 100.005 137.867C111.861 137.867 121.609 133.828 128.338 126.534C134.967 119.35 137.939 109.799 137.939 99.9975C137.939 90.1961 134.967 80.646 128.338 73.4614C121.609 66.1673 111.861 62.1289 100.005 62.1289ZM83.6509 84.4752C86.8526 81.0049 92.0009 78.3866 100.005 78.3866C108.009 78.3866 113.157 81.0049 116.359 84.4752C119.662 88.055 121.653 93.3751 121.653 99.9975C121.653 106.62 119.662 111.941 116.359 115.52C113.157 118.991 108.009 121.609 100.005 121.609C92.0009 121.609 86.8526 118.991 83.6509 115.52C80.3483 111.941 78.3563 106.62 78.3563 99.9975C78.3563 93.3751 80.3483 88.055 83.6509 84.4752Z" fill="black"/>
<path fill-rule="evenodd" clip-rule="evenodd" d="M100 20C61.1297 20 35.8698 33.1971 20.4049 50.2671C5.183 67.069 0 87.0232 0 100C0 112.977 5.183 132.931 20.4049 149.733C35.8698 166.803 61.1297 180 100 180C138.87 180 164.13 166.803 179.595 149.733C194.817 132.931 200 112.977 200 100C200 87.0232 194.817 67.069 179.595 50.2671C164.13 33.1971 138.87 20 100 20ZM31.7925 60.2303C44.0408 46.7107 64.9692 34.9832 100 34.9832C135.031 34.9832 155.959 46.7107 168.208 60.2303C180.699 74.018 184.753 90.3181 184.753 100C184.753 109.682 180.699 125.982 168.208 139.77C155.959 153.289 135.031 165.017 100 165.017C64.9692 165.017 44.0408 153.289 31.7925 139.77C19.3013 125.982 15.2468 109.682 15.2468 100C15.2468 90.3181 19.3013 74.018 31.7925 60.2303Z" fill="black"/>
</svg>
