<svg width="186" height="186" viewBox="0 0 186 186" fill="none" xmlns="http://www.w3.org/2000/svg">
<g filter="url(#filter0_d_730_965)">
<path fill-rule="evenodd" clip-rule="evenodd" d="M47.9024 9.29981H48.5847C54.5485 9.29967 59.5252 9.29956 63.5626 9.69348C67.7851 10.1056 71.7141 11.0002 75.2948 13.2677C78.4898 15.2909 81.1963 17.9974 83.2195 21.1923C85.487 24.7731 86.3817 28.702 86.7936 32.9246C87.1876 36.9619 87.1875 41.9387 87.1873 47.9025V48.5847C87.1875 54.5485 87.1876 59.5252 86.7936 63.5626C86.3817 67.7851 85.487 71.7141 83.2195 75.2948C81.1963 78.4898 78.4898 81.1963 75.2948 83.2195C71.7141 85.487 67.7851 86.3817 63.5626 86.7936C59.5252 87.1876 54.5485 87.1875 48.5847 87.1873H47.9025C41.9387 87.1875 36.9619 87.1876 32.9246 86.7936C28.702 86.3817 24.7731 85.487 21.1923 83.2195C17.9974 81.1963 15.2909 78.4898 13.2677 75.2948C11.0002 71.7141 10.1056 67.7851 9.69348 63.5626C9.29956 59.5252 9.29967 54.5485 9.29981 48.5847V47.9024C9.29967 41.9386 9.29956 36.9619 9.69348 32.9246C10.1056 28.702 11.0002 24.7731 13.2677 21.1923C15.2909 17.9974 17.9974 15.2909 21.1923 13.2677C24.7731 11.0002 28.702 10.1056 32.9246 9.69348C36.9619 9.29956 41.9386 9.29967 47.9024 9.29981ZM34.2793 23.5775C31.1084 23.887 29.6317 24.4352 28.6554 25.0534C27.2032 25.973 25.973 27.2032 25.0534 28.6554C24.4352 29.6317 23.887 31.1084 23.5775 34.2793C23.2575 37.5587 23.2498 41.8506 23.2498 48.2436C23.2498 54.6367 23.2575 58.9284 23.5775 62.2078C23.887 65.3787 24.4352 66.8554 25.0534 67.8317C25.973 69.2839 27.2032 70.5141 28.6554 71.4338C29.6317 72.0519 31.1084 72.6002 34.2793 72.9096C37.5587 73.2296 41.8506 73.2373 48.2436 73.2373C54.6367 73.2373 58.9284 73.2296 62.2078 72.9096C65.3787 72.6002 66.8554 72.0519 67.8317 71.4338C69.2839 70.5141 70.5141 69.2839 71.4338 67.8317C72.0519 66.8554 72.6002 65.3787 72.9096 62.2078C73.2296 58.9284 73.2373 54.6367 73.2373 48.2436C73.2373 41.8506 73.2296 37.5587 72.9096 34.2793C72.6002 31.1084 72.0519 29.6317 71.4338 28.6554C70.5141 27.2032 69.2839 25.973 67.8317 25.0534C66.8554 24.4352 65.3787 23.887 62.2078 23.5775C58.9284 23.2575 54.6367 23.2498 48.2436 23.2498C41.8506 23.2498 37.5587 23.2575 34.2793 23.5775Z" fill="black"/>
<path fill-rule="evenodd" clip-rule="evenodd" d="M47.9024 98.8125H48.5847C54.5485 98.8125 59.5252 98.8125 63.5626 99.2059C67.7851 99.6179 71.7141 100.513 75.2948 102.781C78.4898 104.804 81.1963 107.51 83.2195 110.705C85.487 114.286 86.3817 118.215 86.7936 122.437C87.1876 126.474 87.1875 131.452 87.1873 137.415V138.098C87.1875 144.061 87.1876 149.038 86.7936 153.075C86.3817 157.297 85.487 161.227 83.2195 164.807C81.1963 168.003 78.4898 170.709 75.2948 172.732C71.7141 175 67.7851 175.895 63.5626 176.307C59.5252 176.7 54.5485 176.7 48.5847 176.7H47.9025C41.9387 176.7 36.9619 176.7 32.9246 176.307C28.702 175.895 24.7731 175 21.1923 172.732C17.9974 170.709 15.2909 168.003 13.2677 164.807C11.0002 161.227 10.1056 157.297 9.69348 153.075C9.29956 149.038 9.29967 144.061 9.29981 138.098V137.415C9.29967 131.452 9.29956 126.474 9.69348 122.437C10.1056 118.215 11.0002 114.286 13.2677 110.705C15.2909 107.51 17.9974 104.804 21.1923 102.781C24.7731 100.513 28.702 99.6179 32.9246 99.2059C36.9619 98.8125 41.9386 98.8125 47.9024 98.8125ZM34.2793 113.09C31.1084 113.4 29.6317 113.948 28.6554 114.566C27.2032 115.486 25.973 116.716 25.0534 118.169C24.4352 119.144 23.887 120.621 23.5775 123.792C23.2575 127.071 23.2498 131.363 23.2498 137.756C23.2498 144.149 23.2575 148.441 23.5775 151.72C23.887 154.891 24.4352 156.368 25.0534 157.344C25.973 158.797 27.2032 160.027 28.6554 160.947C29.6317 161.564 31.1084 162.113 34.2793 162.423C37.5587 162.743 41.8506 162.75 48.2436 162.75C54.6367 162.75 58.9284 162.743 62.2078 162.423C65.3787 162.113 66.8554 161.564 67.8317 160.947C69.2839 160.027 70.5141 158.797 71.4338 157.344C72.0519 156.368 72.6002 154.891 72.9096 151.72C73.2296 148.441 73.2373 144.149 73.2373 137.756C73.2373 131.363 73.2296 127.071 72.9096 123.792C72.6002 120.621 72.0519 119.144 71.4338 118.169C70.5141 116.716 69.2839 115.486 67.8317 114.566C66.8554 113.948 65.3787 113.4 62.2078 113.09C58.9284 112.77 54.6367 112.762 48.2436 112.762C41.8506 112.762 37.5587 112.77 34.2793 113.09Z" fill="black"/>
<path fill-rule="evenodd" clip-rule="evenodd" d="M137.415 9.29981H138.098C144.061 9.29967 149.038 9.29956 153.075 9.69348C157.297 10.1056 161.227 11.0002 164.807 13.2677C168.003 15.2909 170.709 17.9974 172.732 21.1923C175 24.7731 175.895 28.702 176.307 32.9246C176.7 36.9619 176.7 41.9387 176.7 47.9025V48.5847C176.7 54.5485 176.7 59.5252 176.307 63.5626C175.895 67.7851 175 71.7141 172.732 75.2948C170.709 78.4898 168.003 81.1963 164.807 83.2195C161.227 85.487 157.297 86.3817 153.075 86.7936C149.038 87.1876 144.061 87.1875 138.098 87.1873H137.415C131.452 87.1875 126.474 87.1876 122.437 86.7936C118.215 86.3817 114.286 85.487 110.705 83.2195C107.51 81.1963 104.804 78.4898 102.781 75.2948C100.513 71.7141 99.6179 67.7851 99.2059 63.5626C98.8125 59.5252 98.8125 54.5485 98.8125 48.5847V47.9024C98.8125 41.9386 98.8125 36.9619 99.2059 32.9246C99.6179 28.702 100.513 24.7731 102.781 21.1923C104.804 17.9974 107.51 15.2909 110.705 13.2677C114.286 11.0002 118.215 10.1056 122.437 9.69348C126.474 9.29956 131.452 9.29967 137.415 9.29981ZM123.792 23.5775C120.621 23.887 119.144 24.4352 118.169 25.0534C116.716 25.973 115.486 27.2032 114.566 28.6554C113.948 29.6317 113.4 31.1084 113.09 34.2793C112.77 37.5587 112.762 41.8506 112.762 48.2436C112.762 54.6367 112.77 58.9284 113.09 62.2078C113.4 65.3787 113.948 66.8554 114.566 67.8317C115.486 69.2839 116.716 70.5141 118.169 71.4338C119.144 72.0519 120.621 72.6002 123.792 72.9096C127.071 73.2296 131.363 73.2373 137.756 73.2373C144.149 73.2373 148.441 73.2296 151.72 72.9096C154.891 72.6002 156.368 72.0519 157.344 71.4338C158.797 70.5141 160.027 69.2839 160.947 67.8317C161.564 66.8554 162.113 65.3787 162.423 62.2078C162.743 58.9284 162.75 54.6367 162.75 48.2436C162.75 41.8506 162.743 37.5587 162.423 34.2793C162.113 31.1084 161.564 29.6317 160.947 28.6554C160.027 27.2032 158.797 25.973 157.344 25.0534C156.368 24.4352 154.891 23.887 151.72 23.5775C148.441 23.2575 144.149 23.2498 137.756 23.2498C131.363 23.2498 127.071 23.2575 123.792 23.5775Z" fill="black"/>
<path fill-rule="evenodd" clip-rule="evenodd" d="M133.494 98.8125C114.34 98.8125 98.8125 114.34 98.8125 133.494C98.8125 152.647 114.34 168.175 133.494 168.175C140.548 168.175 147.111 166.068 152.587 162.451L164.793 174.656C167.517 177.38 171.934 177.38 174.657 174.656C177.381 171.932 177.381 167.516 174.657 164.792L162.451 152.586C166.069 147.11 168.175 140.548 168.175 133.494C168.175 114.34 152.647 98.8125 133.494 98.8125ZM112.763 133.494C112.763 122.044 122.044 112.763 133.494 112.763C144.943 112.763 154.225 122.044 154.225 133.494C154.225 144.943 144.943 154.225 133.494 154.225C122.044 154.225 112.763 144.943 112.763 133.494Z" fill="black"/>
</g>
<defs>
<filter id="filter0_d_730_965" x="-4" y="0" width="194" height="194" filterUnits="userSpaceOnUse" color-interpolation-filters="sRGB">
<feFlood flood-opacity="0" result="BackgroundImageFix"/>
<feColorMatrix in="SourceAlpha" type="matrix" values="0 0 0 0 0 0 0 0 0 0 0 0 0 0 0 0 0 0 127 0" result="hardAlpha"/>
<feOffset dy="4"/>
<feGaussianBlur stdDeviation="2"/>
<feComposite in2="hardAlpha" operator="out"/>
<feColorMatrix type="matrix" values="0 0 0 0 0 0 0 0 0 0 0 0 0 0 0 0 0 0 0.25 0"/>
<feBlend mode="normal" in2="BackgroundImageFix" result="effect1_dropShadow_730_965"/>
<feBlend mode="normal" in="SourceGraphic" in2="effect1_dropShadow_730_965" result="shape"/>
</filter>
</defs>
</svg>
