<svg width="20" height="20" viewBox="0 0 20 20" fill="none" xmlns="http://www.w3.org/2000/svg">
<path d="M18.2546 9.25488L18.3302 9.25876C18.706 9.29685 18.9996 9.61412 18.9996 9.99993C18.9996 10.3857 18.706 10.703 18.3302 10.7411L18.2546 10.7449H5.43646C5.02498 10.7449 4.69141 10.4114 4.69141 9.99993C4.69141 9.58845 5.02498 9.25488 5.43646 9.25488H18.2546Z" fill="black"/>
<path d="M18.2546 3.72681L18.3302 3.73069C18.706 3.76878 18.9996 4.08605 18.9996 4.47186C18.9996 4.85767 18.706 5.17494 18.3302 5.21303L18.2546 5.21691H5.43646C5.02498 5.21691 4.69141 4.88334 4.69141 4.47186C4.69141 4.06038 5.02498 3.72681 5.43646 3.72681H18.2546Z" fill="black"/>
<path d="M18.2546 14.7832L18.3302 14.7871C18.706 14.8252 18.9996 15.1425 18.9996 15.5283C18.9996 15.9141 18.706 16.2314 18.3302 16.2695L18.2546 16.2733H5.43646C5.02498 16.2733 4.69141 15.9398 4.69141 15.5283C4.69141 15.1168 5.02498 14.7832 5.43646 14.7832H18.2546Z" fill="black"/>
<path d="M2.9868 4.47167C2.9868 5.02031 2.54204 5.46507 1.9934 5.46507C1.44476 5.46507 1 5.02031 1 4.47167C1 3.92303 1.44476 3.47827 1.9934 3.47827C2.54204 3.47827 2.9868 3.92303 2.9868 4.47167Z" fill="black"/>
<path d="M2.9868 9.99999C2.9868 10.5486 2.54204 10.9934 1.9934 10.9934C1.44476 10.9934 1 10.5486 1 9.99999C1 9.45135 1.44476 9.00659 1.9934 9.00659C2.54204 9.00659 2.9868 9.45135 2.9868 9.99999Z" fill="black"/>
<path d="M2.9868 15.5283C2.9868 16.0769 2.54204 16.5217 1.9934 16.5217C1.44476 16.5217 1 16.0769 1 15.5283C1 14.9797 1.44476 14.5349 1.9934 14.5349C2.54204 14.5349 2.9868 14.9797 2.9868 15.5283Z" fill="black"/>
</svg>
