<svg width="218" height="218" viewBox="0 0 218 218" fill="none" xmlns="http://www.w3.org/2000/svg">
<path fill-rule="evenodd" clip-rule="evenodd" d="M129.626 34H88.3736C71.9692 33.9999 58.9717 33.9998 48.6332 35.1052C38.0318 36.2385 29.2326 38.6136 21.6796 44.0397C17.2999 47.1861 13.439 50.9742 10.2323 55.2716C4.70215 62.6823 2.28146 71.3159 1.12631 81.7178C-0.000198562 91.8617 -0.000109813 104.614 2.22775e-06 120.71V121.689C-0.000109813 137.785 -0.00019848 150.538 1.12631 160.682C2.28146 171.084 4.70215 179.718 10.2323 187.129C13.439 191.425 17.2999 195.214 21.6796 198.36C29.2326 203.786 38.0318 206.161 48.6332 207.295C58.9717 208.4 71.969 208.4 88.3734 208.4H129.626C146.031 208.4 159.028 208.4 169.366 207.295C179.968 206.161 188.767 203.786 196.32 198.36C200.701 195.214 204.561 191.425 207.768 187.129C213.298 179.718 215.719 171.084 216.874 160.682C218 150.538 218 137.787 218 121.69V120.71C218 104.615 218 91.8616 216.874 81.7178C215.719 71.3159 213.298 62.6823 207.768 55.2716C204.561 50.9742 200.701 47.1861 196.32 44.0397C188.767 38.6136 179.968 36.2385 169.366 35.1052C159.028 33.9998 146.031 33.9999 129.626 34ZM31.5625 57.2834C35.7779 54.2549 41.2769 52.4029 50.4453 51.4227C59.772 50.4255 71.8576 50.4141 88.8729 50.4141H129.127C146.143 50.4141 158.228 50.4255 167.555 51.4227C176.723 52.4029 182.222 54.2549 186.438 57.2834C189.434 59.4361 192.075 62.028 194.27 64.9683C196.248 67.6183 197.733 70.7852 198.807 75.0848L139.451 111.867C130.62 117.34 124.534 121.099 119.465 123.555C114.573 125.926 111.287 126.743 108.186 126.743C105.084 126.743 101.798 125.926 96.9059 123.555C91.8375 121.099 85.751 117.34 76.9194 111.867L18.9819 75.9638C20.0705 71.2116 21.6201 67.7958 23.7301 64.9683C25.9241 62.028 28.5657 59.4361 31.5625 57.2834ZM17.0176 94.1603C16.7339 101.516 16.729 110.333 16.729 121.2C16.729 137.896 16.7407 149.754 17.7569 158.904C18.756 167.9 20.6435 173.295 23.7301 177.432C25.9241 180.372 28.5657 182.964 31.5625 185.117C35.7779 188.145 41.2769 189.998 50.4453 190.977C59.772 191.975 71.8576 191.986 88.8729 191.986H129.127C146.143 191.986 158.228 191.975 167.555 190.977C176.723 189.998 182.222 188.145 186.438 185.117C189.434 182.964 192.075 180.372 194.27 177.432C197.356 173.295 199.244 167.9 200.243 158.904C201.26 149.754 201.271 137.896 201.271 121.2C201.271 109.844 201.265 100.726 200.943 93.1757L148.009 125.979C139.644 131.162 132.821 135.391 126.874 138.273C120.661 141.283 114.765 143.157 108.186 143.157C101.606 143.157 95.7098 141.283 89.4975 138.273C83.5507 135.391 76.7268 131.162 68.3626 125.979L17.0176 94.1603Z" fill="black"/>
</svg>
