<svg width="179" height="179" viewBox="0 0 179 179" fill="none" xmlns="http://www.w3.org/2000/svg">
<path fill-rule="evenodd" clip-rule="evenodd" d="M61.0498 11.8773C53.676 7.92226 44.7626 7.97951 37.3458 12.0228C34.1205 13.7811 31.2428 16.6624 27.5208 20.3889L26.1644 21.7457C20.4846 27.4234 16.7271 31.1795 14.0355 35.8914C8.15336 46.1885 7.2875 60.4203 11.8905 71.2301C13.9961 76.1748 16.9575 79.8728 21.3926 85.4108L22.0016 86.1715C31.0742 97.5051 42.4953 111.771 55.3514 124.628C67.3865 136.663 79.8119 146.594 90.6351 155.244L93.5895 157.608C99.1277 162.043 102.826 165.004 107.77 167.11C118.581 171.713 132.812 170.847 143.109 164.965C147.821 162.274 151.576 158.516 157.254 152.837L158.611 151.48C162.338 147.758 165.219 144.88 166.978 141.655C171.021 134.238 171.079 125.324 167.123 117.95C165.403 114.745 162.555 111.9 158.877 108.226L149.993 99.3434C149.618 98.9675 149.315 98.665 149.019 98.3884C141.894 91.7502 131.326 90.3379 122.582 94.8442C122.218 95.0322 121.835 95.247 121.364 95.5101L121.279 95.5584C120.51 95.988 120.256 96.1304 120.03 96.2467C114.085 99.3398 106.961 98.895 101.536 95.1002C101.331 94.957 101.099 94.7852 100.402 94.2634L99.2414 93.3961C98.1378 92.5718 97.6608 92.2147 97.1972 91.8532C93.448 88.9276 90.073 85.5529 87.1473 81.8031C86.7859 81.3399 86.4289 80.8627 85.604 79.7587L84.7368 78.5983C84.2155 77.9006 84.0438 77.6696 83.9003 77.4644C80.1058 72.0399 79.6607 64.9151 82.7534 58.97C82.8705 58.745 83.0123 58.4902 83.4424 57.7219L83.4941 57.6295C83.7569 57.1602 83.9687 56.7821 84.1562 56.418C88.663 47.6743 87.2507 37.1057 80.612 29.9818C80.3356 29.6852 80.0272 29.3769 79.6514 29.0011L70.7747 20.1239C67.1005 16.4449 64.2563 13.5971 61.0498 11.8773ZM43.7495 23.944C47.1239 22.1045 51.1733 22.0813 54.5186 23.8755C55.116 24.196 55.7638 24.6712 56.8606 25.6692C57.9586 26.6684 59.4778 28.1642 61.8193 30.5057L69.914 38.6005C70.3994 39.0858 70.5221 39.2101 70.6164 39.3112C73.3699 42.2659 73.9616 46.6565 72.0852 50.297C72.0209 50.4216 71.9353 50.5766 71.5962 51.1824L71.5441 51.2755C71.1862 51.9146 70.9337 52.3656 70.7064 52.8026C65.2706 63.2515 66.0468 75.7879 72.73 85.3419C73.0091 85.7409 73.3148 86.15 73.7474 86.7288L74.7282 88.0414C75.4915 89.0629 75.935 89.6559 76.3918 90.2421C79.9917 94.8559 84.1445 99.0087 88.7587 102.608C89.3438 103.065 89.9405 103.511 90.9608 104.274L92.264 105.247L92.2711 105.252C92.8502 105.685 93.2592 105.991 93.6584 106.271C103.212 112.954 115.749 113.73 126.198 108.294C126.635 108.067 127.093 107.81 127.732 107.453L127.818 107.405C128.424 107.065 128.579 106.98 128.703 106.915C132.344 105.039 136.735 105.631 139.689 108.384C139.79 108.479 139.915 108.601 140.4 109.086L148.495 117.182C150.836 119.523 152.332 121.042 153.331 122.14C154.33 123.236 154.805 123.884 155.125 124.482C156.919 127.827 156.895 131.877 155.056 135.251C154.727 135.855 154.243 136.51 153.23 137.62C152.217 138.731 150.702 140.269 148.331 142.64C141.802 149.169 139.38 151.512 136.466 153.178C129.879 156.94 120.121 157.531 113.216 154.591C110.142 153.281 107.866 151.524 101.602 146.509C90.4856 137.61 77.5042 126.465 65.0197 113.981C52.5352 101.496 41.3901 88.515 32.4917 77.3994C27.4767 71.1349 25.7188 68.8589 24.4096 65.7842C21.4693 58.8792 22.0604 49.1214 25.823 42.5346C27.4879 39.6201 29.8316 37.1985 36.3608 30.6693C38.7315 28.2987 40.2697 26.7833 41.3807 25.7701C42.4906 24.7579 43.1459 24.2731 43.7495 23.944Z" fill="black"/>
</svg>
