<svg width="192" height="192" viewBox="0 0 192 192" fill="none" xmlns="http://www.w3.org/2000/svg">
<g filter="url(#filter0_d_730_947)">
<path fill-rule="evenodd" clip-rule="evenodd" d="M148.542 158.652C133.836 171.069 114.83 178.553 94.0762 178.553C47.4211 178.553 9.59961 140.732 9.59961 94.0762C9.59961 47.4211 47.4211 9.59961 94.0762 9.59961C140.732 9.59961 178.553 47.4211 178.553 94.0762C178.553 114.83 171.069 133.836 158.652 148.542C158.962 148.766 159.258 149.018 159.537 149.297L180.279 170.039C183.106 172.867 183.106 177.451 180.279 180.279C177.451 183.106 172.867 183.106 170.039 180.279L149.297 159.537C149.018 159.258 148.766 158.962 148.542 158.652ZM164.071 94.0762C164.071 132.733 132.733 164.071 94.0762 164.071C55.4192 164.071 24.0813 132.733 24.0813 94.0762C24.0813 55.4192 55.4192 24.0813 94.0762 24.0813C132.733 24.0813 164.071 55.4192 164.071 94.0762Z" fill="black"/>
</g>
<defs>
<filter id="filter0_d_730_947" x="5.59961" y="9.59961" width="180.8" height="180.8" filterUnits="userSpaceOnUse" color-interpolation-filters="sRGB">
<feFlood flood-opacity="0" result="BackgroundImageFix"/>
<feColorMatrix in="SourceAlpha" type="matrix" values="0 0 0 0 0 0 0 0 0 0 0 0 0 0 0 0 0 0 127 0" result="hardAlpha"/>
<feOffset dy="4"/>
<feGaussianBlur stdDeviation="2"/>
<feComposite in2="hardAlpha" operator="out"/>
<feColorMatrix type="matrix" values="0 0 0 0 0 0 0 0 0 0 0 0 0 0 0 0 0 0 0.25 0"/>
<feBlend mode="normal" in2="BackgroundImageFix" result="effect1_dropShadow_730_947"/>
<feBlend mode="normal" in="SourceGraphic" in2="effect1_dropShadow_730_947" result="shape"/>
</filter>
</defs>
</svg>
