<svg width="20" height="20" viewBox="0 0 20 20" fill="none" xmlns="http://www.w3.org/2000/svg">
<path fill-rule="evenodd" clip-rule="evenodd" d="M11.906 2C7.9425 2 4.72949 5.17565 4.72949 9.09302C4.72949 13.0104 7.9425 16.186 11.906 16.186C13.4194 16.186 14.8234 15.723 15.9809 14.9324L18.7008 17.7677C18.9869 18.066 19.4634 18.0785 19.7652 17.7958C20.067 17.513 20.0797 17.042 19.7936 16.7437L17.1249 13.9617C18.3385 12.6914 19.0824 10.9781 19.0824 9.09302C19.0824 5.17565 15.8694 2 11.906 2ZM6.23537 9.09302C6.23537 5.99766 8.77418 3.48837 11.906 3.48837C15.0378 3.48837 17.5766 5.99766 17.5766 9.09302C17.5766 12.1884 15.0378 14.6977 11.906 14.6977C8.77418 14.6977 6.23537 12.1884 6.23537 9.09302Z" fill="black"/>
<path fill-rule="evenodd" clip-rule="evenodd" d="M0 17.2559C0 16.8449 0.337103 16.5117 0.752941 16.5117H7.17647C7.5923 16.5117 7.92941 16.8449 7.92941 17.2559C7.92941 17.6669 7.5923 18.0001 7.17647 18.0001H0.752941C0.337103 18.0001 0 17.6669 0 17.2559Z" fill="black"/>
<path fill-rule="evenodd" clip-rule="evenodd" d="M0 13.628C0 13.217 0.337103 12.8838 0.752941 12.8838H3.50588C3.92172 12.8838 4.25882 13.217 4.25882 13.628C4.25882 14.039 3.92172 14.3722 3.50588 14.3722H0.752941C0.337103 14.3722 0 14.039 0 13.628Z" fill="black"/>
<path fill-rule="evenodd" clip-rule="evenodd" d="M0 10C0 9.58905 0.337103 9.25586 0.752941 9.25586H2.58823C3.00407 9.25586 3.34117 9.58905 3.34117 10C3.34117 10.411 3.00407 10.7442 2.58823 10.7442H0.752941C0.337103 10.7442 0 10.411 0 10Z" fill="black"/>
</svg>
