<svg width="20" height="20" viewBox="0 0 20 20" fill="none" xmlns="http://www.w3.org/2000/svg">
<path fill-rule="evenodd" clip-rule="evenodd" d="M1 5.35827C1 4.94508 1.33496 4.61011 1.74816 4.61011H8.23481C8.64801 4.61011 8.98297 4.94508 8.98297 5.35827C8.98297 5.77147 8.64801 6.10643 8.23481 6.10643H1.74816C1.33496 6.10643 1 5.77147 1 5.35827Z" fill="black"/>
<path fill-rule="evenodd" clip-rule="evenodd" d="M18.9996 14.6415C18.9996 15.0547 18.6646 15.3896 18.2514 15.3896H11.7648C11.3516 15.3896 11.0166 15.0547 11.0166 14.6415C11.0166 14.2283 11.3516 13.8933 11.7648 13.8933H18.2514C18.6646 13.8933 18.9996 14.2283 18.9996 14.6415Z" fill="black"/>
<path fill-rule="evenodd" clip-rule="evenodd" d="M14.6415 2.49632C13.0609 2.49632 11.7795 3.77769 11.7795 5.35834C11.7795 6.939 13.0609 8.22037 14.6415 8.22037C16.2222 8.22037 17.5036 6.939 17.5036 5.35834C17.5036 3.77769 16.2222 2.49632 14.6415 2.49632ZM10.2832 5.35834C10.2832 2.9513 12.2345 1 14.6415 1C17.0486 1 18.9999 2.9513 18.9999 5.35834C18.9999 7.76539 17.0486 9.71669 14.6415 9.71669C12.2345 9.71669 10.2832 7.76539 10.2832 5.35834Z" fill="black"/>
<path fill-rule="evenodd" clip-rule="evenodd" d="M5.35834 11.7795C6.93899 11.7795 8.22036 13.0609 8.22036 14.6416C8.22036 16.2222 6.93899 17.5036 5.35834 17.5036C3.77769 17.5036 2.49632 16.2222 2.49632 14.6416C2.49632 13.0609 3.77769 11.7795 5.35834 11.7795ZM9.71668 14.6416C9.71668 12.2345 7.76539 10.2832 5.35834 10.2832C2.9513 10.2832 1 12.2345 1 14.6416C1 17.0486 2.9513 18.9999 5.35834 18.9999C7.76539 18.9999 9.71668 17.0486 9.71668 14.6416Z" fill="black"/>
</svg>
